<?xml version="1.0" encoding="utf-8"?>
<!-- Generator: Adobe Illustrator 16.0.0, SVG Export Plug-In . SVG Version: 6.00 Build 0)  -->
<!DOCTYPE svg PUBLIC "-//W3C//DTD SVG 1.1//EN" "http://www.w3.org/Graphics/SVG/1.1/DTD/svg11.dtd">
<svg version="1.1" id="Layer_1" xmlns="http://www.w3.org/2000/svg" xmlns:xlink="http://www.w3.org/1999/xlink" x="0px" y="0px"
	 width="400.449px" height="56.551px" viewBox="0 0 400.449 56.551" enable-background="new 0 0 400.449 56.551"
	 xml:space="preserve">
<path fill="#75DCFC" d="M84.175,48.413c-0.182-1.968-2.64-2.374-2.64-2.374s0.636,1.158,0.642,1.73
	c0.022,2.146-3.743,3.17-5.214,3.641c-2.864,0.914-5.389,1.145-7.673,1.511c-3.625,0.584-16.151,1.421-20.587,1.61
	c-1.597,0.066-4.202,0.104-6.451,0.134c-2.25-0.026-4.854-0.065-6.451-0.134c-4.435-0.189-16.962-1.026-20.588-1.61
	c-2.283-0.366-4.809-0.597-7.672-1.511c-1.473-0.471-5.236-1.492-5.215-3.641c0.006-0.572,0.641-1.73,0.641-1.73
	s-2.457,0.406-2.64,2.374c-0.212,2.31,4.172,4.304,7.278,5.028c8.15,2.103,18.96,2.744,20.951,2.856
	c0.29,0.017,6.651,0.472,13.696,0.466c7.045,0.006,13.406-0.449,13.694-0.466c1.99-0.112,12.801-0.756,20.953-2.856
	C80.003,52.717,84.389,50.723,84.175,48.413z"/>
<path fill="#75DCFC" d="M20.507,33.57c-1.223,2.299-1.059,4.313,1.586,5.645c0.967,0.486,1.209,0.571,2.283,0.778
	c1.513,0.288,2.879,0.159,3.657-1.167c0.896-1.525,1.797-3.049,2.695-4.57c-4.566-0.538-7.967-1.27-9.688-1.67
	C20.862,32.913,20.683,33.24,20.507,33.57z"/>
<rect x="21.29" y="32.121" fill="#75DCFC" width="9.046" height="2.799"/>
<path fill="#75DCFC" d="M63.518,33.57c-0.2-0.377-0.404-0.752-0.607-1.129c-3.283,0.818-6.51,1.396-9.629,1.787
	c0.904,1.532,1.812,3.063,2.712,4.598c0.777,1.326,2.143,1.455,3.656,1.167c1.075-0.207,1.316-0.292,2.283-0.778
	C64.577,37.884,64.743,35.868,63.518,33.57z"/>
<rect x="53.282" y="32.441" fill="#75DCFC" width="9.627" height="1.814"/>
<path fill="#64D3F4" d="M61.576,29.993c-0.735-1.327-1.482-2.647-2.242-3.958c-1.24-2.14-2.593-4.211-3.856-6.338
	c-1.32-2.226-2.59-4.484-3.885-6.723c-1.824-3.15-3.579-6.345-5.516-9.424c-0.591-0.939-1.009-1.591-1.884-2.453
	c-0.521-0.513-0.82-0.665-1.325-0.784c-0.368-0.087-0.637-0.107-0.855-0.097c-0.218-0.01-0.485,0.01-0.854,0.097
	c-0.506,0.119-0.806,0.271-1.326,0.784C38.958,1.958,38.542,2.61,37.95,3.55c-1.937,3.079-3.693,6.274-5.515,9.424
	c-1.296,2.239-2.565,4.497-3.887,6.723c-1.262,2.127-2.616,4.198-3.856,6.338c-0.596,1.028-1.182,2.063-1.764,3.104
	c-0.64,1.145-1.268,2.293-1.889,3.447c1.722,0.4,5.122,1.132,9.688,1.67c0.257-0.438,0.517-0.872,0.772-1.313
	c0.186-0.315,0.371-0.631,0.554-0.947c1.856-3.198,3.683-6.413,5.543-9.607c0.615-1.054,1.24-2.112,1.962-3.093
	c0.633-0.861,1.507-1.282,2.453-1.284c0.946,0.001,1.821,0.423,2.455,1.284c0.722,0.981,1.347,2.039,1.962,3.093
	c1.861,3.195,3.687,6.409,5.542,9.607c0.266,0.456,0.533,0.912,0.799,1.368c0.17,0.29,0.341,0.575,0.511,0.864
	c3.119-0.393,6.346-0.969,9.629-1.787C62.469,31.622,62.025,30.807,61.576,29.993z"/>
<path fill="#75DCFC" d="M34.601,34.633c-1.927,3.297-3.743,6.43-4.318,7.416c-0.542,0.932-1.138,1.859-1.491,2.864
	c-0.83,2.373,0.41,4.01,2.918,4.008c3.435,0,6.87,0,10.302,0c3.435,0,6.87,0,10.304,0c2.509,0.002,3.748-1.635,2.917-4.008
	c-0.352-1.005-0.949-1.933-1.491-2.864c-0.575-0.988-2.393-4.124-4.322-7.423C43.958,35.066,38.918,34.966,34.601,34.633z"/>
<rect x="35.805" y="33.212" fill="#75DCFC" width="12.417" height="3.417"/>
<path fill="#64D3F4" d="M43.939,25.46c-0.546-0.79-1.214-1.181-1.898-1.186v-0.001c-0.009,0-0.018,0.001-0.028,0
	c-0.009,0.001-0.018,0-0.027,0v0.001c-0.684,0.005-1.352,0.396-1.898,1.186c-0.596,0.861-2.817,4.614-5.015,8.369
	c-0.156,0.269-0.313,0.537-0.47,0.804c4.317,0.333,9.357,0.434,14.82-0.007c-0.102-0.173-0.204-0.347-0.306-0.522
	C46.865,30.26,44.548,26.342,43.939,25.46z"/>
<g>
	<g>
		<path fill="#FFFFFF" d="M94.091,31.295V11.858h8.474c4.535,0,6.803,1.865,6.803,5.598c0,3.871-2.263,5.806-6.79,5.806h-4.6v8.033
			H94.091L94.091,31.295z M97.979,19.634h5.442c1.563-0.026,2.368-0.738,2.411-2.138c-0.043-1.278-0.834-1.943-2.371-1.995H97.98
			L97.979,19.634L97.979,19.634z"/>
		<path fill="#FFFFFF" d="M128.093,11.858v3.63h-6.479v15.807h-3.887V15.488h-6.479V11.86h16.845V11.858z"/>
		<path fill="#FFFFFF" d="M131.086,28.179c0.346-0.351,0.812-0.523,1.399-0.523c0.622,0,1.105,0.174,1.452,0.523
			c0.345,0.351,0.518,0.784,0.518,1.301c0,0.52-0.173,0.951-0.518,1.297c-0.346,0.346-0.821,0.518-1.425,0.518
			c-0.605,0-1.08-0.172-1.426-0.518c-0.346-0.346-0.518-0.777-0.518-1.297C130.568,28.964,130.741,28.53,131.086,28.179z"/>
		<path fill="#FFFFFF" d="M158.104,12.507c0.993,0.432,1.922,1.08,2.786,1.943l-2.592,2.592c-0.863-1.036-2.073-1.555-3.628-1.555
			c-1.555,0-2.548,0.366-2.98,1.101c-0.433,0.735-0.433,1.361,0,1.879c0.432,0.519,1.425,0.907,2.98,1.166
			c1.642,0.173,3.131,0.713,4.471,1.62c1.339,0.908,2.009,2.354,2.009,4.341c0,1.555-0.716,2.896-2.145,4.018
			c-1.43,1.123-3.095,1.686-4.996,1.686c-1.805,0-3.313-0.259-4.522-0.775c-1.209-0.52-2.247-1.209-3.11-2.072l2.592-2.593
			c0.863,1.037,2.332,1.643,4.406,1.814c1.727,0,2.805-0.367,3.232-1.102c0.428-0.733,0.428-1.468,0-2.202
			c-0.427-0.734-1.505-1.188-3.232-1.36c-1.556-0.173-2.981-0.647-4.277-1.425c-1.296-0.778-1.944-2.116-1.944-4.018
			c0-1.719,0.737-3.099,2.209-4.14c1.472-1.041,2.987-1.561,4.542-1.561C155.711,11.858,157.11,12.075,158.104,12.507z"/>
		<path fill="#FFFFFF" d="M164.622,11.845h3.875v19.45h-3.875V11.845z"/>
		<path fill="#FFFFFF" d="M172.397,31.295V11.858h1.295l12.18,12.182V11.858h3.889v19.437h-1.426l-12.051-12.05v12.05H172.397z"/>
		<path fill="#FFFFFF" d="M192.767,31.295l7.774-19.437h3.886l7.763,19.423l-4.133,0.013l-1.166-2.98h-8.813l-1.167,2.98
			L192.767,31.295L192.767,31.295z M202.589,17.042l-2.955,7.386h5.832L202.589,17.042z"/>
		<path fill="#FFFFFF" d="M226.794,22.822l4.847,8.473h-4.459l-4.65-8.033h-3.551v8.033h-3.888V11.858h8.474
			c4.535,0,6.807,1.865,6.807,5.598C230.373,20.264,229.18,22.052,226.794,22.822z M218.98,19.634h5.44
			c1.563-0.026,2.367-0.738,2.41-2.138c-0.043-1.278-0.832-1.943-2.371-1.995h-5.479V19.634L218.98,19.634z"/>
		<path fill="#FFFFFF" d="M242.732,11.845h3.875v19.45h-3.875V11.845z"/>
		<path fill="#FFFFFF" d="M250.507,31.295V11.858h1.295l12.183,12.182V11.858h3.889v19.437h-1.428l-12.051-12.05v12.05H250.507z"/>
		<path fill="#FFFFFF" d="M287.762,11.858v3.63h-6.479v15.807h-3.887V15.488h-6.479V11.86h16.845V11.858z"/>
		<path fill="#FFFFFF" d="M290.65,11.845h3.875v19.45h-3.875V11.845z"/>
		<path fill="#FFFFFF" d="M307.498,31.295V11.858h8.476c4.534,0,6.804,1.865,6.804,5.598c0,3.871-2.265,5.806-6.791,5.806h-4.602
			v8.033H307.498L307.498,31.295z M311.384,19.634h5.441c1.563-0.026,2.367-0.738,2.41-2.138c-0.043-1.278-0.834-1.943-2.371-1.995
			h-5.48V19.634z"/>
		<path fill="#FFFFFF" d="M324.615,31.295l7.772-19.437h3.89l7.762,19.423l-4.133,0.013l-1.168-2.98h-8.812l-1.168,2.98
			L324.615,31.295L324.615,31.295z M334.438,17.042l-2.954,7.386h5.829L334.438,17.042z"/>
		<path fill="#FFFFFF" d="M346.941,31.295V11.858h1.295l12.18,12.182V11.858h3.89v19.437h-1.427l-12.051-12.05v12.05H346.941z"/>
		<path fill="#FFFFFF" d="M368.285,31.295V11.871l14.277-0.013v3.63h-10.394v4.146h7.787v3.616h-7.787v4.418h10.367v3.627H368.285z"
			/>
		<path fill="#FFFFFF" d="M390.402,11.858v15.809h10.364v3.627h-14.254V11.858H390.402z"/>
	</g>
</g>
<g>
	<path fill="#E8E8E8" d="M94.121,37.32h1.291v5.971h-1.291V37.32z"/>
	<path fill="#E8E8E8" d="M96.71,43.291v-5.966h0.432l4.057,3.737v-3.737h1.295v5.966h-0.475l-4.014-3.699v3.699H96.71z"/>
	<path fill="#E8E8E8" d="M107.341,37.523c0.331,0.133,0.64,0.332,0.928,0.597l-0.863,0.796c-0.288-0.318-0.69-0.479-1.208-0.479
		c-0.518,0-0.849,0.113-0.993,0.338c-0.144,0.227-0.144,0.418,0,0.578c0.144,0.158,0.475,0.277,0.993,0.356
		c0.547,0.054,1.043,0.22,1.489,0.498s0.669,0.722,0.669,1.332c0,0.478-0.238,0.89-0.714,1.233s-1.031,0.517-1.664,0.517
		c-0.601,0-1.103-0.079-1.506-0.238c-0.403-0.159-0.749-0.37-1.036-0.637l0.863-0.796c0.288,0.318,0.777,0.504,1.467,0.558
		c0.576,0,0.935-0.112,1.077-0.339c0.142-0.225,0.142-0.449,0-0.676c-0.143-0.227-0.501-0.364-1.077-0.418
		c-0.518-0.053-0.993-0.198-1.424-0.438c-0.432-0.238-0.647-0.649-0.647-1.232c0-0.528,0.245-0.951,0.736-1.271
		c0.49-0.318,0.995-0.479,1.513-0.479C106.544,37.325,107.01,37.393,107.341,37.523z"/>
	<path fill="#E8E8E8" d="M110.708,37.325v3.46c0,0.451,0.144,0.781,0.432,0.994s0.647,0.318,1.079,0.318
		c0.432,0,0.792-0.105,1.079-0.318c0.288-0.213,0.432-0.543,0.432-0.994v-3.46h1.295v3.778c0,0.608-0.266,1.127-0.798,1.551
		c-0.533,0.425-1.202,0.637-2.007,0.637c-0.805,0-1.475-0.212-2.007-0.637c-0.532-0.424-0.798-0.941-0.798-1.551v-3.778H110.708z"/>
	<path fill="#E8E8E8" d="M117.729,37.325v4.853h3.453v1.113h-4.748v-5.966H117.729z"/>
	<path fill="#E8E8E8" d="M121.908,43.291l2.589-5.966h1.295l2.585,5.962L127,43.291l-0.388-0.915h-2.935l-0.389,0.915H121.908z
		 M125.179,38.916l-0.984,2.268h1.942L125.179,38.916z"/>
	<path fill="#E8E8E8" d="M134.626,37.325v1.112h-2.158v4.854h-1.295v-4.854h-2.158v-1.112H134.626z"/>
	<path fill="#E8E8E8" d="M135.572,43.291v-5.962l4.756-0.004v1.112h-3.461v1.272h2.594v1.11h-2.594v1.355h3.453v1.113h-4.748V43.291
		z"/>
	<path fill="#E8E8E8" d="M141.631,43.291V37.32h2.495c2.014,0,3.021,0.996,3.021,2.986c0,1.989-1.007,2.983-3.021,2.983
		L141.631,43.291L141.631,43.291z M144.126,42.102c1.148-0.002,1.724-0.601,1.727-1.793c-0.003-1.193-0.579-1.789-1.727-1.789h-1.2
		v3.582H144.126z"/>
	<path fill="#E8E8E8" d="M155.063,37.523c0.331,0.133,0.64,0.332,0.928,0.597l-0.863,0.796c-0.288-0.318-0.69-0.479-1.208-0.479
		s-0.849,0.113-0.993,0.338c-0.144,0.227-0.144,0.418,0,0.578c0.144,0.158,0.475,0.277,0.993,0.356
		c0.547,0.054,1.043,0.22,1.489,0.498c0.446,0.278,0.669,0.722,0.669,1.332c0,0.478-0.238,0.89-0.714,1.233
		c-0.476,0.344-1.031,0.517-1.664,0.517c-0.601,0-1.103-0.079-1.506-0.238c-0.403-0.159-0.749-0.37-1.036-0.637l0.863-0.796
		c0.288,0.318,0.777,0.504,1.467,0.558c0.576,0,0.935-0.112,1.077-0.339c0.142-0.225,0.142-0.449,0-0.676
		c-0.143-0.227-0.501-0.364-1.077-0.418c-0.518-0.053-0.993-0.198-1.424-0.438c-0.432-0.238-0.647-0.649-0.647-1.232
		c0-0.528,0.245-0.951,0.736-1.271c0.49-0.318,0.995-0.479,1.513-0.479C154.266,37.325,154.732,37.393,155.063,37.523z"/>
	<path fill="#E8E8E8" d="M156.893,43.291l2.589-5.966h1.295l2.585,5.962l-1.377,0.004l-0.388-0.915h-2.935l-0.389,0.915H156.893z
		 M160.165,38.916l-0.984,2.268h1.942L160.165,38.916z"/>
	<path fill="#E8E8E8" d="M164.329,43.291v-5.966h0.432l4.057,3.737v-3.737h1.295v5.966h-0.475l-4.014-3.699v3.699H164.329z"/>
	<path fill="#E8E8E8" d="M171.455,43.291V37.32h2.495c2.014,0,3.021,0.996,3.021,2.986c0,1.989-1.007,2.983-3.021,2.983
		L171.455,43.291L171.455,43.291z M173.95,42.102c1.148-0.002,1.724-0.601,1.727-1.793c-0.003-1.193-0.579-1.789-1.727-1.789h-1.2
		v3.582H173.95z"/>
	<path fill="#E8E8E8" d="M182.297,38.916l-1.295,4.375h-1.295l-1.73-5.966h1.381l1.126,4.057l1.166-4.057h1.338l1.122,4.057
		l1.122-4.057h1.381l-1.727,5.966h-1.295L182.297,38.916z"/>
	<path fill="#E8E8E8" d="M187.571,37.32h1.291v5.971h-1.291V37.32z"/>
	<path fill="#E8E8E8" d="M190.771,42.434c-0.62-0.567-0.93-1.281-0.93-2.138c0.003-0.838,0.313-1.542,0.932-2.114
		c0.619-0.57,1.386-0.855,2.301-0.855c0.923,0,1.716,0.265,2.378,0.795l-0.863,0.871c-0.44-0.318-0.945-0.479-1.515-0.479
		c-0.582,0.004-1.05,0.17-1.405,0.502s-0.533,0.756-0.533,1.272c0.003,0.555,0.183,0.994,0.54,1.319
		c0.356,0.326,0.826,0.49,1.407,0.49c0.582,0,1.083-0.158,1.506-0.475l0.863,0.871c-0.659,0.531-1.452,0.796-2.378,0.796
		C192.159,43.288,191.392,43.003,190.771,42.434z"/>
	<path fill="#E8E8E8" d="M196.846,43.291v-5.966h1.295v2.386h3.017V37.32h1.295v5.967l-1.295,0.004v-2.466h-3.017v2.466H196.846z"/>
	<path fill="#E8E8E8" d="M206.873,43.291v-5.966h2.822c1.511,0,2.266,0.571,2.266,1.718c0,1.188-0.754,1.782-2.262,1.782h-1.532
		v2.466H206.873z M208.167,39.711h1.813c0.521-0.008,0.787-0.227,0.803-0.656c-0.016-0.392-0.278-0.597-0.79-0.611h-1.826V39.711z"
		/>
	<path fill="#E8E8E8" d="M212.573,43.291l2.59-5.966h1.295l2.585,5.962l-1.376,0.004l-0.39-0.915h-2.936l-0.388,0.915H212.573z
		 M215.846,38.916l-0.984,2.268h1.941L215.846,38.916z"/>
	<path fill="#E8E8E8" d="M220.01,43.291v-5.966h0.432l4.058,3.737v-3.737h1.295v5.966h-0.476l-4.014-3.699v3.699H220.01z"/>
	<path fill="#E8E8E8" d="M227.119,43.291v-5.962l4.756-0.004v1.112h-3.461v1.272h2.594v1.11h-2.594v1.355h3.452v1.113h-4.747V43.291
		z"/>
	<path fill="#E8E8E8" d="M234.486,37.325v4.853h3.451v1.113h-4.746v-5.966H234.486z"/>
	<path fill="#E8E8E8" d="M242.025,43.291v-5.966h0.433l2.806,2.942l2.81-2.942h0.432v5.966h-1.294l-0.005-3.46l-1.942,1.987
		l-1.941-1.987v3.46H242.025z"/>
	<path fill="#E8E8E8" d="M249.454,43.291l2.59-5.966h1.295l2.585,5.962l-1.376,0.004l-0.389-0.915h-2.937l-0.388,0.915H249.454z
		 M252.727,38.916l-0.984,2.268h1.941L252.727,38.916z"/>
	<path fill="#E8E8E8" d="M256.891,43.291v-5.966h0.432l4.057,3.737v-3.737h1.295v5.966h-0.475l-4.016-3.699v3.699H256.891z"/>
	<path fill="#E8E8E8" d="M265.211,37.325v3.46c0,0.451,0.145,0.781,0.432,0.994s0.647,0.318,1.08,0.318
		c0.432,0,0.791-0.105,1.078-0.318s0.432-0.543,0.432-0.994v-3.46h1.295v3.778c0,0.608-0.266,1.127-0.799,1.551
		c-0.531,0.425-1.201,0.637-2.006,0.637c-0.807,0-1.476-0.212-2.008-0.637c-0.533-0.424-0.799-0.941-0.799-1.551v-3.778H265.211z"/>
	<path fill="#E8E8E8" d="M270.921,43.291v-5.966h4.554v1.112h-3.259v1.272h2.404v1.11h-2.404v2.47L270.921,43.291L270.921,43.291z"
		/>
	<path fill="#E8E8E8" d="M276.075,43.291l2.59-5.966h1.295l2.585,5.962l-1.376,0.004l-0.39-0.915h-2.936l-0.388,0.915H276.075z
		 M279.348,38.916l-0.984,2.268h1.941L279.348,38.916z"/>
	<path fill="#E8E8E8" d="M283.95,42.434c-0.62-0.567-0.931-1.281-0.931-2.138c0.002-0.838,0.313-1.542,0.933-2.114
		c0.618-0.57,1.386-0.855,2.301-0.855c0.925,0,1.716,0.265,2.378,0.795l-0.863,0.871c-0.439-0.318-0.944-0.479-1.515-0.479
		c-0.581,0.004-1.05,0.17-1.405,0.502c-0.354,0.332-0.533,0.756-0.533,1.272c0.004,0.555,0.185,0.994,0.541,1.319
		c0.355,0.326,0.824,0.49,1.406,0.49c0.581,0,1.084-0.158,1.506-0.475l0.863,0.871c-0.658,0.531-1.451,0.796-2.378,0.796
		C285.337,43.288,284.57,43.003,283.95,42.434z"/>
	<path fill="#E8E8E8" d="M295.307,37.325v1.112h-2.158v4.854h-1.295v-4.854h-2.158v-1.112H295.307z"/>
	<path fill="#E8E8E8" d="M297.465,37.325v3.46c0,0.451,0.145,0.781,0.432,0.994s0.647,0.318,1.08,0.318
		c0.432,0,0.791-0.105,1.078-0.318s0.432-0.543,0.432-0.994v-3.46h1.295v3.778c0,0.608-0.266,1.127-0.799,1.551
		c-0.531,0.425-1.2,0.637-2.006,0.637c-0.807,0-1.476-0.212-2.008-0.637c-0.533-0.424-0.799-0.941-0.799-1.551v-3.778H297.465z"/>
	<path fill="#E8E8E8" d="M307.076,40.689l1.614,2.602h-1.484l-1.55-2.466h-1.184v2.466h-1.293v-5.966h2.821
		c1.511,0,2.266,0.571,2.266,1.718C308.267,39.905,307.871,40.454,307.076,40.689z M304.473,39.711h1.813
		c0.521-0.008,0.788-0.227,0.803-0.656c-0.015-0.392-0.278-0.597-0.79-0.611h-1.826V39.711z"/>
	<path fill="#E8E8E8" d="M309.347,43.291v-5.962l4.756-0.004v1.112h-3.461v1.272h2.595v1.11h-2.595v1.355h3.452v1.113h-4.747V43.291
		z"/>
	<path fill="#E8E8E8" d="M319.303,40.689l1.614,2.602h-1.484l-1.55-2.466H316.7v2.466h-1.294v-5.966h2.821
		c1.512,0,2.267,0.571,2.267,1.718C320.495,39.905,320.098,40.454,319.303,40.689z M316.701,39.711h1.813
		c0.521-0.008,0.788-0.227,0.804-0.656c-0.016-0.392-0.278-0.597-0.79-0.611h-1.826V39.711z"/>
	<path fill="#E8E8E8" d="M324.271,43.291l2.59-5.966h1.295l2.585,5.962l-1.376,0.004l-0.39-0.915h-2.936l-0.388,0.915H324.271z
		 M327.543,38.916l-0.984,2.268h1.942L327.543,38.916z"/>
	<path fill="#E8E8E8" d="M331.708,43.291v-5.966h0.432l4.058,3.737v-3.737h1.295v5.966h-0.476l-4.015-3.699v3.699H331.708z"/>
	<path fill="#E8E8E8" d="M338.833,43.291V37.32h2.494c2.015,0,3.021,0.996,3.021,2.986c0,1.989-1.007,2.983-3.021,2.983
		L338.833,43.291L338.833,43.291z M341.328,42.102c1.147-0.002,1.724-0.601,1.727-1.793c-0.003-1.193-0.578-1.789-1.727-1.789h-1.2
		v3.582H341.328z"/>
	<path fill="#E8E8E8" d="M348.76,37.32h1.29v5.971h-1.29V37.32z"/>
	<path fill="#E8E8E8" d="M351.35,43.291v-5.966h0.433l4.057,3.737v-3.737h1.295v5.966h-0.475l-4.016-3.699v3.699H351.35z"/>
	<path fill="#E8E8E8" d="M361.98,37.523c0.33,0.133,0.641,0.332,0.929,0.597l-0.863,0.796c-0.288-0.318-0.69-0.479-1.209-0.479
		c-0.518,0-0.849,0.113-0.992,0.338c-0.145,0.227-0.145,0.418,0,0.578c0.145,0.158,0.476,0.277,0.992,0.356
		c0.547,0.054,1.043,0.22,1.489,0.498s0.669,0.722,0.669,1.332c0,0.478-0.238,0.89-0.715,1.233c-0.477,0.345-1.03,0.517-1.663,0.517
		c-0.603,0-1.104-0.079-1.507-0.238s-0.748-0.37-1.035-0.637l0.863-0.796c0.286,0.318,0.775,0.504,1.467,0.558
		c0.575,0,0.935-0.112,1.077-0.339c0.143-0.225,0.143-0.449,0-0.676c-0.144-0.227-0.502-0.364-1.077-0.418
		c-0.519-0.053-0.992-0.198-1.424-0.438c-0.433-0.238-0.647-0.649-0.647-1.232c0-0.528,0.245-0.951,0.735-1.271
		c0.49-0.318,0.995-0.479,1.513-0.479C361.183,37.325,361.649,37.393,361.98,37.523z"/>
	<path fill="#E8E8E8" d="M369.434,37.325v1.112h-2.157v4.854h-1.294v-4.854h-2.158v-1.112H369.434z"/>
	<path fill="#E8E8E8" d="M370.055,43.291l2.59-5.966h1.296l2.585,5.962l-1.376,0.004l-0.39-0.915h-2.936l-0.389,0.915H370.055z
		 M373.328,38.916l-0.984,2.268h1.942L373.328,38.916z"/>
	<path fill="#E8E8E8" d="M378.799,37.325v4.853h3.452v1.113h-4.747v-5.966H378.799z"/>
	<path fill="#E8E8E8" d="M384.626,37.325v4.853h3.452v1.113h-4.747v-5.966H384.626z"/>
	<path fill="#E8E8E8" d="M389.127,43.291v-5.962l4.756-0.004v1.112h-3.461v1.272h2.594v1.11h-2.594v1.355h3.452v1.113h-4.747V43.291
		z"/>
	<path fill="#E8E8E8" d="M399.084,40.689l1.614,2.602h-1.484l-1.55-2.466h-1.183v2.466h-1.294v-5.966h2.821
		c1.511,0,2.267,0.571,2.267,1.718C400.276,39.905,399.879,40.454,399.084,40.689z M396.482,39.711h1.813
		c0.521-0.008,0.788-0.227,0.803-0.656c-0.015-0.392-0.277-0.597-0.79-0.611h-1.825V39.711z"/>
</g>
</svg>
