<?xml version="1.0" encoding="utf-8"?>
<!-- Generator: Adobe Illustrator 16.0.0, SVG Export Plug-In . SVG Version: 6.00 Build 0)  -->
<!DOCTYPE svg PUBLIC "-//W3C//DTD SVG 1.1//EN" "http://www.w3.org/Graphics/SVG/1.1/DTD/svg11.dtd">
<svg version="1.1" id="Layer_1" xmlns="http://www.w3.org/2000/svg" xmlns:xlink="http://www.w3.org/1999/xlink" x="0px" y="0px"
	 width="83.863px" height="56.55px" viewBox="0.32 0.214 83.863 56.55" enable-background="new 0.32 0.214 83.863 56.55"
	 xml:space="preserve">
<path fill="#FFFFFF" d="M84.175,48.413c-0.182-1.968-2.64-2.374-2.64-2.374s0.636,1.158,0.642,1.73
	c0.022,2.146-3.743,3.17-5.214,3.641c-2.864,0.914-5.389,1.145-7.673,1.511c-3.625,0.584-16.151,1.421-20.587,1.61
	c-1.597,0.066-4.202,0.104-6.451,0.134c-2.25-0.026-4.854-0.065-6.451-0.134c-4.435-0.189-16.962-1.026-20.588-1.61
	c-2.283-0.366-4.809-0.597-7.672-1.511c-1.473-0.471-5.236-1.492-5.215-3.641c0.006-0.572,0.641-1.73,0.641-1.73
	s-2.457,0.406-2.64,2.374c-0.212,2.31,4.172,4.304,7.278,5.028c8.15,2.103,18.96,2.744,20.951,2.856
	c0.29,0.017,6.651,0.472,13.696,0.466c7.045,0.006,13.406-0.449,13.694-0.466c1.99-0.112,12.801-0.756,20.953-2.856
	C80.003,52.717,84.389,50.723,84.175,48.413z"/>
<path fill="#FFFFFF" d="M20.507,33.57c-1.223,2.299-1.059,4.313,1.586,5.645c0.967,0.486,1.209,0.571,2.283,0.778
	c1.513,0.288,2.879,0.159,3.657-1.167c0.896-1.525,1.797-3.049,2.695-4.57c-4.566-0.538-7.967-1.27-9.688-1.67
	C20.862,32.913,20.683,33.24,20.507,33.57z"/>
<rect x="21.29" y="32.121" fill="#FFFFFF" width="9.046" height="2.799"/>
<path fill="#FFFFFF" d="M63.518,33.57c-0.2-0.377-0.404-0.752-0.607-1.129c-3.283,0.818-6.51,1.396-9.629,1.787
	c0.904,1.532,1.812,3.063,2.712,4.598c0.777,1.326,2.143,1.455,3.656,1.167c1.075-0.207,1.316-0.292,2.283-0.778
	C64.577,37.884,64.743,35.868,63.518,33.57z"/>
<rect x="53.282" y="32.441" fill="#FFFFFF" width="9.627" height="1.814"/>
<path fill="#FFFFFF" d="M61.576,29.993c-0.735-1.327-1.482-2.647-2.242-3.958c-1.24-2.14-2.593-4.211-3.856-6.338
	c-1.32-2.226-2.59-4.484-3.885-6.723c-1.824-3.15-3.579-6.345-5.516-9.424c-0.591-0.939-1.009-1.591-1.884-2.453
	c-0.521-0.513-0.82-0.665-1.325-0.784c-0.368-0.087-0.637-0.107-0.855-0.097c-0.218-0.01-0.485,0.01-0.854,0.097
	c-0.506,0.119-0.806,0.271-1.326,0.784C38.958,1.958,38.542,2.61,37.95,3.55c-1.937,3.079-3.693,6.274-5.515,9.424
	c-1.296,2.239-2.565,4.497-3.887,6.723c-1.262,2.127-2.616,4.198-3.856,6.338c-0.596,1.028-1.182,2.063-1.764,3.104
	c-0.64,1.145-1.268,2.293-1.889,3.447c1.722,0.4,5.122,1.132,9.688,1.67c0.257-0.438,0.517-0.872,0.772-1.313
	c0.186-0.315,0.371-0.631,0.554-0.947c1.856-3.198,3.683-6.413,5.543-9.607c0.615-1.054,1.24-2.112,1.962-3.093
	c0.633-0.861,1.507-1.282,2.453-1.284c0.946,0.001,1.821,0.423,2.455,1.284c0.722,0.981,1.347,2.039,1.962,3.093
	c1.861,3.195,3.687,6.409,5.542,9.607c0.266,0.456,0.533,0.912,0.799,1.368c0.17,0.29,0.341,0.575,0.511,0.864
	c3.119-0.393,6.346-0.969,9.629-1.787C62.469,31.622,62.025,30.807,61.576,29.993z"/>
<path fill="#FFFFFF" d="M34.601,34.633c-1.927,3.297-3.743,6.43-4.318,7.416c-0.542,0.932-1.138,1.859-1.491,2.864
	c-0.83,2.373,0.41,4.01,2.918,4.008c3.435,0,6.87,0,10.302,0c3.435,0,6.87,0,10.304,0c2.509,0.002,3.748-1.635,2.917-4.008
	c-0.352-1.005-0.949-1.933-1.491-2.864c-0.575-0.988-2.393-4.124-4.322-7.423C43.958,35.066,38.918,34.966,34.601,34.633z"/>
<rect x="35.805" y="33.212" fill="#FFFFFF" width="12.417" height="3.417"/>
<path fill="#FFFFFF" d="M43.939,25.46c-0.546-0.79-1.214-1.181-1.898-1.186v-0.001c-0.009,0-0.018,0.001-0.028,0
	c-0.009,0.001-0.018,0-0.027,0v0.001c-0.684,0.005-1.352,0.396-1.898,1.186c-0.596,0.861-2.817,4.614-5.015,8.369
	c-0.156,0.269-0.313,0.537-0.47,0.804c4.317,0.333,9.357,0.434,14.82-0.007c-0.102-0.173-0.204-0.347-0.306-0.522
	C46.865,30.26,44.548,26.342,43.939,25.46z"/>
</svg>
